<svg width="86" height="43" viewBox="0 0 86 43" fill="none" xmlns="http://www.w3.org/2000/svg">
<path d="M0.304234 0.147961C0.267946 0.244729 0.25585 0.510841 0.280042 0.740665C0.31633 1.11564 0.340522 1.13983 0.86065 1.17612C1.15095 1.20031 1.46545 1.27289 1.55012 1.34547C1.77995 1.52691 1.77995 18.7758 1.55012 18.9572C1.46545 19.0298 1.15095 19.1024 0.86065 19.1266C0.328426 19.1629 0.31633 19.175 0.280042 19.6346C0.25585 19.8886 0.292138 20.1427 0.364714 20.191C0.43729 20.2273 1.48964 20.2515 2.69924 20.2273C5.14263 20.1789 5.39665 20.1064 5.63857 19.3927C5.69905 19.1992 5.75953 19.0298 5.77163 19.0056C5.78372 18.9814 6.08612 19.1508 6.43691 19.3806C7.42878 19.9975 8.08196 20.2152 8.95287 20.2152C9.59396 20.2152 9.88427 20.1306 10.61 19.7798C12.7147 18.7395 13.7671 16.405 13.4405 13.5019C13.1623 10.9981 12.1704 9.17158 10.7189 8.5063C9.54558 7.94988 7.6586 8.16761 6.43691 8.99014L5.83211 9.4014L5.79582 5.32505C5.75953 0.873721 5.74743 0.776953 5.00958 0.281017C4.71927 0.0753852 4.39268 0.0511932 2.5178 0.0149052C0.715498 -0.0213828 0.364714 0.00280922 0.304234 0.147961ZM7.91262 10.1393C9.03755 10.5747 9.61815 12.7883 9.32785 15.5341C9.09803 17.7114 8.58999 18.6186 7.59812 18.6186C6.96913 18.6186 6.47319 18.3041 6.09822 17.6872C5.83211 17.2396 5.82001 17.1428 5.82001 14.1309C5.82001 11.0827 5.82001 11.0344 6.09822 10.8045C6.58206 10.3691 7.04171 10.1272 7.53764 10.0425C7.58603 10.0425 7.75537 10.0788 7.91262 10.1393Z" fill="#8A8A8A"/>
<path d="M59.8892 4.90193C59.6231 5.45835 59.236 5.95428 58.6191 6.57118C57.6394 7.52676 56.841 8.0227 56.0548 8.15575L55.5347 8.24043V8.77265V9.30487H56.1153C56.4298 9.30487 56.7443 9.35326 56.8289 9.40164C56.9257 9.46212 56.9741 10.6112 57.0104 13.599C57.0467 17.639 57.0467 17.7237 57.337 18.3527C57.6878 19.1268 58.3772 19.7437 59.1877 20.0219C59.9376 20.2638 61.3528 20.2638 62.0544 20.0219C63.1431 19.6228 65.4534 17.6511 65.2961 17.2398C65.1631 16.8891 64.8728 16.9012 64.0865 17.2882C62.756 17.9414 61.9576 17.7721 61.4375 16.7076C61.1714 16.1512 61.1593 16.0423 61.1593 12.7522V9.36535L62.5866 9.32907L64.0019 9.29278V8.76055V8.22833L62.5866 8.19204L61.1593 8.15575L61.123 6.12363L61.0988 4.10359H60.6755C60.2884 4.10359 60.24 4.15198 59.8892 4.90193Z" fill="#8A8A8A"/>
<path d="M19.4643 8.22831C17.42 8.53071 15.6903 9.81289 14.7952 11.6999C14.3476 12.6192 14.3476 12.6434 14.3597 14.1433C14.3718 15.8488 14.5896 16.6955 15.3032 17.8204C16.2225 19.2478 17.9764 20.1066 20.2747 20.2396C22.4762 20.3606 24.0849 19.6106 25.3792 17.8567C25.9114 17.131 25.9114 17.1189 25.6695 16.889C25.4276 16.6471 25.4276 16.6471 24.726 16.9616C22.7786 17.8204 20.7464 17.8567 19.6457 17.0584C19.1739 16.7076 18.5691 15.7641 18.4966 15.2319L18.4603 14.9295L20.4561 14.8569C22.3189 14.7964 22.5003 14.7722 23.214 14.4457C24.472 13.8771 25.0526 13.0062 25.0526 11.6757C25.0405 9.89756 23.6374 8.53071 21.4843 8.21622C20.5287 8.08316 20.4198 8.08316 19.4643 8.22831ZM21.1214 9.59516C21.4722 9.94595 21.5931 10.5145 21.5206 11.5305C21.4359 12.9095 20.6013 13.7078 19.0651 13.865L18.3998 13.9376V13.1393C18.3998 11.5547 18.7748 10.5024 19.5973 9.75241C20.19 9.20809 20.6859 9.15971 21.1214 9.59516Z" fill="#8A8A8A"/>
<path d="M40.1486 8.15565C40.0882 8.21613 40.0519 8.49434 40.0519 8.78464V9.30477H40.572C40.8502 9.30477 41.1405 9.35315 41.2252 9.40154C41.322 9.46202 41.3824 10.6111 41.4187 13.5384C41.4671 17.9292 41.4913 18.1469 42.1445 19.0058C42.8582 19.9372 44.2371 20.3726 45.8338 20.167C46.5837 20.0702 47.8296 19.5138 48.6642 18.8969L49.269 18.4614L49.4989 18.7517C49.6198 18.909 49.7287 19.0783 49.7287 19.1267C49.7287 19.284 50.8778 19.9492 51.3495 20.0823C52.16 20.3 53.4905 20.2516 54.1195 19.9734C54.7848 19.6831 55.6557 18.909 55.9581 18.3163C56.1758 17.9171 56.1758 17.8808 55.9944 17.6873C55.813 17.518 55.7283 17.5059 55.2928 17.6389C54.3856 17.905 53.5268 17.3728 53.2365 16.3446C53.176 16.0906 53.1156 14.5302 53.1156 12.7158C53.1156 8.10727 53.2002 8.21613 49.7529 8.21613H47.5393L47.5756 8.72416C47.6119 9.24429 47.6119 9.24429 48.1562 9.30477C48.4586 9.34106 48.7731 9.41363 48.8578 9.46202C48.9666 9.53459 49.0029 10.4781 49.0029 13.4658V17.3607L48.6038 17.7478C47.9748 18.3526 47.0192 18.5461 46.3539 18.1953C45.6765 17.8566 45.616 17.4454 45.616 13.3327C45.616 8.10727 45.6886 8.22823 42.3017 8.13146C41.1647 8.09517 40.197 8.10727 40.1486 8.15565Z" fill="#8A8A8A"/>
<path d="M29.9392 8.45789C28.4755 8.83287 27.3022 9.54653 26.9273 10.2844C26.6974 10.7198 26.6974 11.7601 26.9273 12.1956C27.1813 12.6915 27.8103 12.9455 28.8142 12.9455C30.1932 12.9576 30.6044 12.5342 30.7375 10.9739C30.8222 10.0667 30.8585 9.95779 31.2092 9.6433C31.5237 9.35299 31.6931 9.30461 32.2616 9.30461C33.5559 9.30461 33.7615 9.6433 33.7615 11.748V13.2479L32.3463 13.3931C29.2013 13.7197 27.1329 14.6027 26.5039 15.8969C26.2741 16.3687 26.2378 16.5985 26.2862 17.2638C26.4071 18.8846 27.278 19.7556 29.1045 20.0821C30.6649 20.3483 31.6689 20.0942 33.3865 18.9814L34.1486 18.4855L34.6203 19.0177C35.3582 19.8644 36.0114 20.1184 37.4508 20.1305C38.4668 20.1305 38.733 20.0942 39.1442 19.8644C39.6643 19.5862 40.2691 19.0419 40.753 18.4008C41.0312 18.0379 41.0433 17.9774 40.886 17.6992C40.7651 17.4694 40.6683 17.4089 40.4748 17.4815C40.3417 17.5178 39.9909 17.5904 39.6885 17.6146C39.2531 17.6629 39.0716 17.6146 38.8055 17.4089C38.1282 16.8767 38.0677 16.5985 37.9951 13.8406C37.9225 10.9618 37.8137 10.5626 36.9065 9.74007C35.4187 8.39741 32.3342 7.8289 29.9392 8.45789ZM33.7615 15.4978C33.7615 16.1147 33.7978 16.8283 33.8341 17.0702C33.9067 17.4936 33.8946 17.5299 33.3381 17.8807C32.6487 18.3161 32.0197 18.4371 31.3544 18.2557C30.7617 18.0984 30.4835 17.7355 30.4109 16.9977C30.2537 15.655 31.6326 14.4212 33.3139 14.397L33.7615 14.3849V15.4978Z" fill="#8A8A8A"/>
<path d="M64.7521 8.72417L64.7884 9.2443L65.3448 9.28059L65.8891 9.31687L68.4898 14.1795C69.9171 16.8527 71.1872 19.2356 71.3081 19.4775L71.538 19.9251L70.9694 20.7718C70.3525 21.7032 69.8929 22.054 69.1309 22.187C68.3446 22.308 68.0906 22.0177 68.0059 20.9048C67.885 19.3928 67.256 18.655 66.1431 18.7034C65.369 18.7397 64.9698 19.0179 64.7279 19.6831C64.3771 20.6992 64.9698 22.1386 66.0343 22.8523C66.8084 23.3603 67.4011 23.5055 68.7196 23.5176C69.7357 23.5176 69.9534 23.4813 70.5582 23.1789C70.9694 22.9733 71.5017 22.562 71.8887 22.1386C72.5903 21.3887 72.808 20.9774 76.4973 13.3569C77.4892 11.2885 78.3601 9.5467 78.4206 9.46203C78.4811 9.37735 78.7593 9.30478 79.0375 9.28059C79.5455 9.2443 79.5455 9.2443 79.5455 8.76046V8.27662L76.9812 8.24033L74.4047 8.21614V8.76046V9.30478H75.5538C76.1828 9.30478 76.7029 9.32897 76.7029 9.36526C76.7029 9.5346 73.9209 15.7761 73.8362 15.8003C73.7273 15.8366 70.6549 9.65556 70.6549 9.41364C70.6549 9.35316 71.0299 9.30478 71.4896 9.30478H72.3242L72.3726 8.89351C72.3968 8.66369 72.3968 8.42177 72.3726 8.34919C72.3363 8.25243 71.1993 8.21614 68.5261 8.21614H64.7158L64.7521 8.72417Z" fill="#8A8A8A"/>
<path d="M80.5372 14.4697C80.4888 14.506 80.4525 15.0261 80.4525 15.6067V16.659L79.0736 17.7235C78.3115 18.3162 77.6946 18.8121 77.7067 18.8242C77.7309 18.8363 78.3962 18.7396 79.1824 18.6186C80.9001 18.3404 81.3476 18.3283 81.517 18.5339C81.6137 18.6428 81.5774 19.175 81.3718 20.433C81.2146 21.4007 81.0936 22.199 81.1178 22.2232C81.1299 22.2353 81.6258 21.6305 82.2185 20.8564L83.2951 19.4774L84.4079 19.4653C85.049 19.4653 85.557 19.4169 85.5933 19.3323C85.6417 19.2718 85.3877 18.7759 85.0369 18.2436L84.4079 17.2759L84.674 16.3929C84.8071 15.897 84.928 15.3769 84.928 15.2317C84.928 14.9172 84.795 14.9293 83.4644 15.2922L82.6661 15.5099L81.7831 14.9535C80.9001 14.3971 80.6944 14.3124 80.5372 14.4697Z" fill="#8A8A8A"/>
<path d="M21.2666 22.332C21.2182 22.3683 21.1819 22.6465 21.1819 22.9247V23.4448L21.823 23.4811L22.452 23.5174V32.408V41.2985L21.8472 41.359L21.2424 41.4195L21.2061 42.0001L21.1698 42.5686L24.593 42.5444L28.0161 42.5081L28.0524 42.109C28.1129 41.5525 27.9073 41.359 27.2904 41.359C26.9275 41.359 26.7461 41.2985 26.6977 41.1655C26.6614 41.0566 26.6251 39.4962 26.6251 37.6818V34.3796L27.0968 33.6418C27.6291 32.8192 28.0766 32.5289 28.7782 32.5289C29.3225 32.5289 29.6975 32.8192 29.8668 33.3998C29.9394 33.6176 30.0241 35.2626 30.0604 37.0649C30.0966 38.9882 30.1813 40.5244 30.266 40.8147C30.5805 41.9154 31.8506 42.5686 33.665 42.5686C34.4391 42.5686 34.681 42.5081 35.3221 42.1936C36.0842 41.8066 36.9067 40.9356 36.9067 40.5123C36.9067 40.1373 36.6164 40.0043 36.2293 40.2099C35.7818 40.4397 35.4189 40.4397 34.9834 40.2099C34.2456 39.8349 34.0158 38.7221 34.0037 35.6618C34.0037 33.3152 33.8585 32.4563 33.3505 31.7064C32.782 30.8597 32.0683 30.5452 30.5805 30.4968C29.4556 30.4484 29.3467 30.4726 28.6451 30.8234C28.2339 31.0169 27.617 31.4403 27.2662 31.7427L26.6372 32.2991L26.6009 27.7631L26.5646 23.2392L26.2622 22.9126C25.73 22.332 25.3429 22.2473 23.2624 22.2473C22.2101 22.2473 21.3029 22.2836 21.2666 22.332Z" fill="#8A8A8A"/>
<path d="M75.7833 23.3602C73.7269 25.5011 70.957 29.0695 69.8199 31.0774C68.4047 33.5329 67.6547 35.8916 67.5459 38.214C67.4491 40.0889 67.6547 40.8268 68.4773 41.6251C69.1788 42.3025 69.9409 42.5686 71.1868 42.5686C72.8197 42.5565 74.2229 41.7703 76.376 39.6293C77.9242 38.0931 78.0815 37.8391 77.646 37.573C77.4888 37.4641 77.3436 37.5367 76.9203 37.9237C75.5171 39.218 74.1382 40.0284 73.3278 40.0284C72.9286 40.0284 72.7351 39.9438 72.3601 39.6051C71.7311 39.0245 71.5618 38.3471 71.6585 36.6537C71.8762 32.6741 73.7269 28.1623 76.7146 24.3036C77.138 23.7593 77.5614 23.215 77.646 23.094C77.767 22.9247 77.7549 22.84 77.5372 22.5739C77.4041 22.3925 77.1985 22.2473 77.0775 22.2473C76.9566 22.2473 76.376 22.7554 75.7833 23.3602Z" fill="#8A8A8A"/>
<path d="M41.4545 30.6661C40.4868 30.8839 39.2772 31.404 38.6724 31.8636C38.0676 32.3233 37.7048 33.1216 37.8015 33.799C37.9588 34.803 38.6483 35.311 39.8699 35.311C41.2368 35.311 41.8537 34.682 41.8658 33.2789C41.8658 32.9281 41.9505 32.4684 42.0593 32.2749C42.3859 31.6338 43.4383 31.3677 44.164 31.7427C44.7688 32.0572 44.8898 32.4563 44.8898 34.1377V35.6376L43.777 35.7102C40.7167 35.8916 38.2249 36.9198 37.5838 38.2624C37.3661 38.7342 37.3298 39.7502 37.5233 40.4276C37.6806 41.0082 38.3338 41.7461 38.9386 42.0364C39.495 42.3025 40.6683 42.5565 41.3336 42.5686C42.0351 42.5686 43.0996 42.1694 44.2487 41.48L45.2406 40.8752L45.8333 41.4679C46.305 41.9396 46.6074 42.1211 47.2485 42.3146C49.075 42.8831 50.6112 42.3872 51.7119 40.8994C52.099 40.3671 52.1474 40.2462 52.0264 40.0163C51.9176 39.8107 51.8208 39.7744 51.5668 39.847C50.9741 40.0163 50.2604 39.968 49.9338 39.7502C49.2685 39.3148 49.196 38.9761 49.1234 36.2182C49.0629 33.8837 49.0266 33.6297 48.7726 33.1095C48.4823 32.4926 47.6356 31.6701 46.9461 31.3193C45.4946 30.5815 43.0996 30.2912 41.4545 30.6661ZM44.914 38.2382C44.9624 39.8954 44.9261 40.0043 44.1398 40.4034C43.6439 40.6574 42.652 40.7058 42.1924 40.5002C41.5392 40.2099 41.2973 39.0971 41.6964 38.2624C42.0956 37.4157 43.2205 36.7867 44.3697 36.7746L44.8656 36.7625L44.914 38.2382Z" fill="#8A8A8A"/>
<path d="M51.2046 31.0411L51.2409 31.6217L51.8457 31.6822L52.4505 31.7427L52.511 35.9158L52.5715 40.0889L52.9223 40.7905C53.5271 42.0364 54.7367 42.6291 56.4906 42.5444C57.2405 42.5202 57.5792 42.4235 58.3171 42.0727C58.813 41.8307 59.4904 41.4316 59.8291 41.1776C60.2524 40.8389 60.4339 40.7663 60.4702 40.8873C60.5064 40.984 60.7726 41.2985 61.0871 41.6009C61.7765 42.2783 62.5991 42.5686 63.8087 42.5686C65.1029 42.5686 66.0222 42.0606 66.9778 40.8147C67.2681 40.4276 67.2923 40.355 67.1351 40.0768C67.0141 39.8349 66.9173 39.7865 66.7238 39.8591C66.5907 39.9075 66.2037 39.9559 65.865 39.9559C65.1271 39.968 64.8126 39.7502 64.4739 39.0003C64.2683 38.5648 64.2441 38.1536 64.2441 35.19C64.2441 31.4766 64.2078 31.283 63.4095 30.7387C63.0103 30.4726 62.9135 30.4726 60.8693 30.4968L58.7404 30.5331V31.0774V31.6217L59.3452 31.6822L59.95 31.7427L60.0226 35.6739C60.071 39.1575 60.0589 39.6414 59.8896 39.8954C59.4178 40.6091 57.8937 40.9356 57.3494 40.4518C56.6962 39.8712 56.6841 39.7744 56.6236 35.4924C56.5511 31.0532 56.5632 31.0653 55.7406 30.6661C55.4019 30.5089 54.9181 30.4726 53.2368 30.4726H51.1683L51.2046 31.0411Z" fill="#8A8A8A"/>
</svg>
