<svg width="78" height="28" viewBox="0 0 78 28" fill="none" xmlns="http://www.w3.org/2000/svg">
<g clip-path="url(#clip0_50_194)">
<path fill-rule="evenodd" clip-rule="evenodd" d="M18.2405 8.15161C18.9144 8.15161 19.3862 8.69075 19.2514 9.29728C18.0398 14.6455 18.2255 20.2156 19.7905 25.4714C19.9927 26.0779 19.4536 26.6844 18.847 26.6844H2.53817C1.86425 26.6844 1.32511 26.0105 1.52729 25.404C3.1447 19.6756 3.1447 15.6995 2.06643 9.29728C1.99903 8.62336 2.40339 8.219 3.07731 8.219H3.1447C6.44691 8.55596 8.53606 8.69075 10.6926 8.69075C12.7144 8.69075 14.8709 8.55596 18.1057 8.219H18.2405V8.15161ZM8.13171 12.7343C8.13171 13.1386 7.79475 13.4756 7.323 13.4756C7.22853 13.4761 7.13502 13.4567 7.04853 13.4187C6.96204 13.3807 6.88451 13.3249 6.82096 13.255C6.75742 13.1851 6.70928 13.1026 6.67966 13.0129C6.65005 12.9232 6.63963 12.8283 6.64908 12.7343C6.63963 12.6403 6.65005 12.5453 6.67966 12.4556C6.70928 12.3659 6.75742 12.2834 6.82096 12.2135C6.88451 12.1436 6.96204 12.0879 7.04853 12.0499C7.13502 12.0119 7.22853 11.9925 7.323 11.993C7.79475 11.993 8.13171 12.3299 8.13171 12.6669V12.7343ZM13.9274 13.4756C14.3318 13.4756 14.7361 13.1386 14.7361 12.7343C14.7361 12.3299 14.3318 11.993 13.9274 11.993C13.7487 11.993 13.5773 12.064 13.4509 12.1903C13.3245 12.3167 13.2535 12.4881 13.2535 12.6669C13.2333 12.7659 13.2356 12.8683 13.2602 12.9663C13.2849 13.0643 13.3313 13.1556 13.3961 13.2332C13.4608 13.3109 13.5421 13.373 13.6341 13.415C13.7261 13.4569 13.8263 13.4776 13.9274 13.4756ZM6.44691 15.2952C6.44691 16.643 7.45779 19.3387 10.6252 19.3387C13.86 19.3387 14.8709 16.643 14.8709 15.2952C14.8709 15.0256 14.6013 14.756 14.3318 14.756C14.0622 14.756 13.86 15.0256 13.86 15.2952C13.86 16.306 13.0513 18.3952 10.6252 18.3952C10.2125 18.4042 9.8021 18.3306 9.41817 18.1788C9.03425 18.0271 8.6845 17.8002 8.38946 17.5114C8.09442 17.2226 7.86003 16.8778 7.70004 16.4973C7.54005 16.1167 7.45769 15.708 7.45779 15.2952C7.45779 15.0256 7.25561 14.756 6.91865 14.756C6.64908 14.756 6.44691 15.0256 6.44691 15.2952Z" fill="#8A8A8A"/>
<path d="M12.7822 5.38848C13.0646 5.33867 13.3337 5.23126 13.5728 5.07296C13.8118 4.91465 14.0157 4.70883 14.1718 4.4683C14.3279 4.22778 14.4328 3.9577 14.48 3.67489C14.5272 3.39207 14.5156 3.10257 14.4461 2.8244C14.3765 2.54624 14.2505 2.28536 14.0758 2.05802C13.901 1.83068 13.6814 1.64174 13.4305 1.50296C13.1796 1.36418 12.9028 1.27854 12.6174 1.25135C12.3319 1.22417 12.044 1.25603 11.7714 1.34496C11.489 1.39477 11.2199 1.50217 10.9809 1.66048C10.7418 1.81879 10.5379 2.02461 10.3818 2.26513C10.2257 2.50566 10.1208 2.77574 10.0736 3.05855C10.0265 3.34137 10.038 3.63087 10.1075 3.90904C10.1771 4.1872 10.3031 4.44807 10.4779 4.67541C10.6526 4.90275 10.8722 5.09169 11.1231 5.23047C11.374 5.36925 11.6508 5.4549 11.9363 5.48208C12.2217 5.50927 12.5097 5.4774 12.7822 5.38848Z" fill="#8A8A8A"/>
<path d="M17.3643 7.54502V5.38847C17.4317 4.71455 16.6904 4.24281 16.0165 4.64716L12.1077 7.20806C11.8382 7.34284 11.636 7.61241 11.5686 7.88198C13.186 7.88198 14.9382 7.74719 17.3643 7.54502Z" fill="#8A8A8A"/>
<path d="M4.08837 7.54503C6.71665 7.8146 8.67102 7.94938 10.6254 7.94938L9.6819 4.84935C9.58973 4.58327 9.39712 4.3638 9.14525 4.23786C8.89338 4.11193 8.60224 4.08952 8.33406 4.17543L4.49272 5.18631C3.88619 5.3211 3.54923 5.99502 3.8188 6.53415L4.02098 7.47764L4.08837 7.54503Z" fill="#8A8A8A"/>
<path d="M64.4043 17.4518C63.9895 16.2784 63.2238 15.2611 62.2111 14.5377C61.1984 13.8144 59.9878 13.42 58.7433 13.4082C58.2725 13.4082 57.8082 13.5178 57.3871 13.7284C56.966 13.9389 56.5997 14.2446 56.3172 14.6213C55.7107 15.2952 55.6433 16.4409 55.7781 17.317V17.5865L56.0476 17.3844C56.2498 17.1822 56.7216 16.9126 57.2607 16.7778H58.2042C58.9455 16.8452 59.6194 17.1822 60.1586 17.7213C60.8325 18.3952 61.102 19.2713 61.102 20.2822C61.102 21.3605 60.7651 22.1692 60.1586 22.8431C59.4846 23.517 58.6759 23.7866 57.6651 23.7866C57.2183 23.7981 56.7737 23.7206 56.3572 23.5586C55.9407 23.3966 55.5606 23.1534 55.2389 22.8431C54.2281 21.8322 54.3628 19.8779 54.3628 19.8779V8.21905L54.2281 8.08427L53.8237 8.01687C53.4867 7.88209 53.0824 7.8147 52.6106 7.8147C52.0041 7.8147 51.5324 7.94948 51.1954 8.21905C50.8585 8.42123 50.7237 8.82558 50.7237 9.36471V19.6757C50.7237 20.754 50.8585 21.6974 51.0606 22.5062C51.2628 23.3149 51.5998 23.9888 52.0041 24.5279C52.678 25.3366 53.4194 25.9431 54.4302 26.4149C56.4031 27.2534 58.6228 27.3016 60.6303 26.5497C61.4593 26.258 62.2177 25.7953 62.8562 25.1916C63.4948 24.5879 63.9992 23.8566 64.3369 23.0453C64.6738 22.2366 64.8086 21.2931 64.8086 20.2822C64.8086 19.2039 64.6738 18.2605 64.3369 17.4518H64.4043ZM42.5018 8.01687L41.2888 7.8147C40.6149 7.8147 40.2105 7.94948 39.8062 8.21905C39.5366 8.42123 39.3344 8.82558 39.3344 9.36471V26.6845H42.9736V8.21905L42.5018 8.08427V8.01687ZM46.9497 11.8582C47.2251 11.8635 47.4987 11.8124 47.7537 11.7081C48.0086 11.6038 48.2396 11.4485 48.4323 11.2517C48.8367 10.9147 49.0389 10.443 49.0389 9.90385C49.0389 9.36765 48.8259 8.8534 48.4467 8.47425C48.0676 8.0951 47.5533 7.88209 47.0171 7.88209C46.4106 7.88209 45.9388 8.01687 45.5345 8.42123C45.1782 8.8053 44.9849 9.31268 44.9954 9.83646C44.9954 10.443 45.1301 10.9147 45.5345 11.2517C45.9078 11.6326 46.4164 11.8506 46.9497 11.8582ZM47.0845 13.8126C46.478 13.8126 46.0062 13.9474 45.6693 14.2169C45.3323 14.4191 45.1975 14.8235 45.1975 15.43V26.6845H48.8367V14.1495L48.2976 14.0148C47.9606 13.88 47.5563 13.8126 47.0845 13.8126ZM69.5934 8.01687C69.2565 7.88209 68.8521 7.8147 68.3804 7.8147C67.7739 7.8147 67.3021 7.94948 66.9651 8.21905C66.6282 8.42123 66.4934 8.82558 66.4934 9.36471V26.6845H70.1326V8.21905L69.5934 8.08427V8.01687ZM74.0413 11.8582C74.5746 11.8506 75.0833 11.6326 75.4565 11.2517C75.8609 10.9147 76.0631 10.443 76.0631 9.90385C76.0631 9.36765 75.8501 8.8534 75.4709 8.47425C75.0918 8.0951 74.5775 7.88209 74.0413 7.88209C73.4348 7.88209 72.963 8.01687 72.5587 8.42123C72.2024 8.8053 72.0091 9.31268 72.0195 9.83646C72.0195 10.443 72.2217 10.9147 72.5587 11.2517C72.7515 11.4485 72.9824 11.6038 73.2374 11.7081C73.4923 11.8124 73.7659 11.8635 74.0413 11.8582ZM74.1087 13.8126C73.5022 13.8126 73.0304 13.9474 72.6935 14.2169C72.3565 14.4191 72.2217 14.8235 72.2217 15.43V26.6845H75.8609V14.1495L75.3218 14.0148C74.9848 13.88 74.5804 13.8126 74.1087 13.8126ZM37.1779 17.4518C36.7631 16.2784 35.9974 15.2611 34.9848 14.5377C33.9721 13.8144 32.7614 13.42 31.517 13.4082C31.0576 13.4185 30.6066 13.5331 30.1979 13.7432C29.7893 13.9534 29.4338 14.2536 29.1582 14.6213C28.4843 15.2952 28.4843 16.4409 28.6191 17.317V17.5865L28.8887 17.3844C29.0908 17.1822 29.5626 16.9126 30.1017 16.7778H31.0452C31.7865 16.8452 32.393 17.1822 32.9996 17.7213C33.6061 18.3952 33.9431 19.2713 33.9431 20.2822C33.9431 21.3605 33.6061 22.1692 32.9322 22.8431C32.2583 23.517 31.517 23.7192 30.5061 23.7192C30.0593 23.7307 29.6147 23.6532 29.1982 23.4912C28.7817 23.3292 28.4016 23.086 28.08 22.7757C27.0691 21.7648 27.1365 19.8105 27.1365 19.8105V8.21905L27.0691 8.08427L26.6647 8.01687C26.3278 7.88209 25.9234 7.8147 25.4517 7.8147C24.8451 7.8147 24.3734 7.94948 24.0364 8.21905C23.6995 8.42123 23.5647 8.82558 23.5647 9.36471V19.6757C23.5647 20.754 23.6321 21.6974 23.9017 22.5062C24.1038 23.3149 24.4408 23.9888 24.7778 24.5279C25.4517 25.3366 26.2604 25.9431 27.2713 26.4149C29.2245 27.2356 31.4165 27.2838 33.4039 26.5497C34.2329 26.258 34.9913 25.7953 35.6298 25.1916C36.2684 24.5879 36.7729 23.8566 37.1105 23.0453C37.5148 22.2366 37.6496 21.2931 37.6496 20.2822C37.6496 19.2039 37.5148 18.2605 37.1779 17.4518Z" fill="#8A8A8A"/>
</g>
<defs>
<clipPath id="clip0_50_194">
<rect width="76.8269" height="26.9568" fill="white" transform="translate(0.38208 0.805908)"/>
</clipPath>
</defs>
</svg>
