<svg width="24" height="24" viewBox="0 0 24 24" fill="none" xmlns="http://www.w3.org/2000/svg">
<path d="M8.83995 15.9443L19.8013 5.37417C20.0599 5.12472 20.3617 5 20.7066 5C21.0515 5 21.3533 5.12472 21.612 5.37417C21.8707 5.62361 22 5.92003 22 6.26343C22 6.60683 21.8707 6.90284 21.612 7.15145L9.74531 18.6258C9.48663 18.8753 9.18484 19 8.83995 19C8.49505 19 8.19326 18.8753 7.93459 18.6258L2.37309 13.2628C2.11441 13.0134 1.99025 12.7174 2.0006 12.3748C2.01094 12.0322 2.14589 11.7358 2.40542 11.4855C2.66496 11.2352 2.97235 11.1105 3.3276 11.1114C3.68284 11.1122 3.9898 11.2369 4.24848 11.4855L8.83995 15.9443Z" fill="white"/>
</svg>
