<svg width="13" height="14" viewBox="0 0 13 14" fill="none" xmlns="http://www.w3.org/2000/svg">
<path d="M9.74999 2.66667C9.83154 2.66667 9.91204 2.68509 9.98547 2.72054C10.0589 2.75599 10.1234 2.80757 10.1741 2.87142L10.2142 2.92992L11.8392 5.63826C11.8924 5.72706 11.9191 5.82926 11.916 5.93275C11.9129 6.03624 11.8803 6.13668 11.8219 6.22217L11.7785 6.27796L7.15812 11.4417C7.07233 11.5292 6.96992 11.5987 6.85691 11.6462C6.7439 11.6936 6.62256 11.718 6.49999 11.7179C6.28333 11.7179 6.07479 11.6421 5.89874 11.492L5.82562 11.4238L1.22145 6.27796C1.15219 6.20068 1.10658 6.10512 1.09006 6.00266C1.07355 5.90019 1.08681 5.79514 1.12829 5.70001L1.16079 5.63771L2.79283 2.91746L2.82749 2.86871C2.85229 2.83787 2.88045 2.80989 2.91145 2.7853L2.95966 2.75063L3.00733 2.72355L3.03441 2.71109L3.06691 2.69755L3.12595 2.68021L3.18662 2.66938L3.24999 2.66667H9.74999ZM4.93674 4.80246C4.8136 4.72872 4.66623 4.70687 4.52699 4.7417C4.38775 4.77654 4.26803 4.86522 4.19412 4.98826L3.86912 5.52992L3.83662 5.59276C3.79516 5.68835 3.78216 5.79387 3.79916 5.89667C3.81617 5.99947 3.86246 6.09519 3.93249 6.17234L5.01583 7.36401L5.06458 7.41167C5.16484 7.49747 5.29299 7.54372 5.42494 7.54172C5.55689 7.53973 5.68357 7.48963 5.7812 7.40084L5.82833 7.35209C5.91413 7.25182 5.96037 7.12368 5.95838 6.99173C5.95638 6.85978 5.90629 6.73309 5.81749 6.63546L5.00445 5.74171L5.12254 5.54509L5.15233 5.4893C5.20676 5.36828 5.21488 5.23149 5.17514 5.10489C5.1354 4.97828 5.05057 4.87067 4.93674 4.80246Z" fill="#703BE7"/>
<path d="M9.74999 2.66667C9.83154 2.66667 9.91204 2.68509 9.98547 2.72054C10.0589 2.75599 10.1234 2.80757 10.1741 2.87142L10.2142 2.92992L11.8392 5.63826C11.8924 5.72706 11.9191 5.82926 11.916 5.93275C11.9129 6.03624 11.8803 6.13668 11.8219 6.22217L11.7785 6.27796L7.15812 11.4417C7.07233 11.5292 6.96992 11.5987 6.85691 11.6462C6.7439 11.6936 6.62256 11.718 6.49999 11.7179C6.28333 11.7179 6.07479 11.6421 5.89874 11.492L5.82562 11.4238L1.22145 6.27796C1.15219 6.20068 1.10658 6.10512 1.09006 6.00266C1.07355 5.90019 1.08681 5.79514 1.12829 5.70001L1.16079 5.63771L2.79283 2.91746L2.82749 2.86871C2.85229 2.83787 2.88045 2.80989 2.91145 2.7853L2.95966 2.75063L3.00733 2.72355L3.03441 2.71109L3.06691 2.69755L3.12595 2.68021L3.18662 2.66938L3.24999 2.66667H9.74999ZM4.93674 4.80246C4.8136 4.72872 4.66623 4.70687 4.52699 4.7417C4.38775 4.77654 4.26803 4.86522 4.19412 4.98826L3.86912 5.52992L3.83662 5.59276C3.79516 5.68835 3.78216 5.79387 3.79916 5.89667C3.81617 5.99947 3.86246 6.09519 3.93249 6.17234L5.01583 7.36401L5.06458 7.41167C5.16484 7.49747 5.29299 7.54372 5.42494 7.54172C5.55689 7.53973 5.68357 7.48963 5.7812 7.40084L5.82833 7.35209C5.91413 7.25182 5.96037 7.12368 5.95838 6.99173C5.95638 6.85978 5.90629 6.73309 5.81749 6.63546L5.00445 5.74171L5.12254 5.54509L5.15233 5.4893C5.20676 5.36828 5.21488 5.23149 5.17514 5.10489C5.1354 4.97828 5.05057 4.87067 4.93674 4.80246Z" fill="url(#paint0_linear_518_60)" fill-opacity="0.34"/>
<defs>
<linearGradient id="paint0_linear_518_60" x1="6.4997" y1="2.66667" x2="6.4997" y2="11.7179" gradientUnits="userSpaceOnUse">
<stop stop-color="white"/>
<stop offset="1" stop-color="white" stop-opacity="0"/>
</linearGradient>
</defs>
</svg>
