<svg width="110" height="29" viewBox="0 0 110 29" fill="none" xmlns="http://www.w3.org/2000/svg">
<g clip-path="url(#clip0_50_169)">
<path d="M44.7024 4.01587H47.18V15.875H51.451V18.2159H44.7128L44.7024 4.01587Z" fill="#8A8A8A"/>
<path d="M57.1881 7.57381C58.5008 7.55747 59.7451 8.15268 60.5523 9.18251V7.78522H62.8638V18.2367H60.5523V16.8394C59.7451 17.8693 58.5008 18.4645 57.1881 18.4481C54.3062 18.4481 52.1188 15.9989 52.1188 13.0084C52.1188 10.0178 54.3062 7.57381 57.1881 7.57381ZM57.6082 9.66719C55.7369 9.66719 54.4978 11.1316 54.4978 13.0084C54.4978 14.8852 55.7574 16.3547 57.6082 16.3547C59.4586 16.3547 60.7182 14.8904 60.7182 13.0084C60.7182 11.1264 59.4791 9.66719 57.6082 9.66719Z" fill="#8A8A8A"/>
<path d="M64.6633 16.4217L70.1732 9.87339H64.7461V7.78516H73.1587V9.6259L67.6697 16.1484H73.2832V18.2367H64.6633V16.4217Z" fill="#8A8A8A"/>
<path d="M79.1613 7.57381C80.4736 7.55747 81.7183 8.15268 82.5252 9.18251V7.78522H84.837V18.2367H82.5252V16.8394C81.7183 17.8693 80.4736 18.4645 79.1613 18.4481C76.2794 18.4481 74.0969 15.9989 74.0969 13.0084C74.0969 10.0178 76.2794 7.57381 79.1613 7.57381ZM79.581 9.66719C77.7097 9.66719 76.471 11.1316 76.471 13.0084C76.471 14.8852 77.7306 16.3547 79.581 16.3547C81.4314 16.3547 82.691 14.8904 82.691 13.0084C82.691 11.1264 81.4523 9.66719 79.581 9.66719Z" fill="#8A8A8A"/>
<path d="M91.44 7.57374C92.7512 7.5566 93.9944 8.15215 94.799 9.18244V3.17554H97.1105V18.2366H94.799V16.8394C93.9944 17.8696 92.7512 18.4652 91.44 18.448C88.5581 18.448 86.3707 15.9989 86.3707 13.0083C86.3707 10.0177 88.5581 7.57374 91.44 7.57374ZM91.8598 9.66712C89.9885 9.66712 88.7498 11.1315 88.7498 13.0083C88.7498 14.8852 90.0146 16.3547 91.8598 16.3547C93.7052 16.3547 94.9697 14.8903 94.9697 13.0083C94.9697 11.1263 93.7311 9.66712 91.8598 9.66712Z" fill="#8A8A8A"/>
<path d="M103.714 7.57385C105.025 7.55671 106.269 8.15226 107.073 9.18254V7.78525H109.379V18.2368H107.063V16.8395C106.258 17.8697 105.015 18.4653 103.704 18.4482C100.822 18.4482 98.6344 15.999 98.6344 13.0084C98.6344 10.0178 100.832 7.57385 103.714 7.57385ZM104.134 9.66722C102.263 9.66722 101.024 11.1316 101.024 13.0084C101.024 14.8853 102.289 16.3548 104.134 16.3548C105.979 16.3548 107.244 14.8904 107.244 13.0084C107.244 11.1264 106.005 9.66722 104.134 9.66722Z" fill="#8A8A8A"/>
<path d="M17.6562 28.5395C17.4055 28.5413 17.1588 28.4774 16.9407 28.3545C15.0733 27.2798 1.24289 18.6536 0.720587 18.3902C0.323095 18.2057 0.0516701 17.8277 0.00509959 17.3938V5.29439C-0.00518582 4.84275 0.219266 4.41772 0.598951 4.16986L0.69912 4.11292C2.03708 3.28732 6.51601 0.568504 7.22434 0.177051C7.38689 0.0810995 7.57201 0.0295402 7.76096 0.0275879C7.93812 0.0295819 8.11225 0.0734962 8.26898 0.1557C8.26898 0.1557 14.5367 4.21969 15.4954 4.58267C16.1681 4.89011 16.9016 5.04334 17.6419 5.03106C18.4806 5.0485 19.3094 4.84729 20.0459 4.44744C20.9832 3.95634 26.9718 0.177051 27.0362 0.177051C27.1871 0.086337 27.3606 0.0394922 27.537 0.0418225C27.7262 0.0427434 27.9115 0.0943769 28.0736 0.191286C28.8893 0.639675 34.4415 4.0204 34.6776 4.16986C35.0681 4.40422 35.3048 4.82653 35.3 5.28016V17.3796C35.2562 17.8145 34.984 18.1937 34.5846 18.376C34.0623 18.6607 20.2748 27.2869 18.3716 28.3403C18.155 28.4682 17.9081 28.5369 17.6562 28.5395Z" fill="url(#paint0_linear_50_169)"/>
<path d="M17.5848 28.5395L17.6564 28.5395C17.9071 28.5412 18.1538 28.4774 18.3719 28.3545C20.2393 27.2797 34.0625 18.6535 34.5848 18.3902C34.9842 18.2079 35.2565 17.8287 35.3003 17.3938V5.29434C35.3026 5.08952 35.256 4.88706 35.1643 4.70361L17.5848 14.3049V28.5395Z" fill="#7D7D88"/>
<path d="M17.5238 28.3691L17.453 28.369C17.205 28.3707 16.9609 28.3076 16.7452 28.186C14.8976 27.1227 1.2217 18.5884 0.70495 18.3279C0.30983 18.1475 0.0404366 17.7724 -0.00288976 17.3421V5.37154C-0.00517009 5.1689 0.0409062 4.9686 0.131601 4.78711L17.5238 14.2861V28.3691Z" fill="#8A8A8A"/>
</g>
<defs>
<linearGradient id="paint0_linear_50_169" x1="35.3001" y1="14.2836" x2="0.00476074" y2="14.2836" gradientUnits="userSpaceOnUse">
<stop stop-color="#7D7D88"/>
<stop offset="1" stop-color="#676772"/>
</linearGradient>
<clipPath id="clip0_50_169">
<rect width="109.382" height="28.512" fill="white" transform="translate(-0.000366211 0.0283203)"/>
</clipPath>
</defs>
</svg>
