<svg viewBox="0 0 25 26" fill="none" xmlns="http://www.w3.org/2000/svg">
<path d="M10.3497 14.272C10.4963 14.512 10.6702 14.7392 10.8715 14.9487C12.1213 16.2494 14.0262 16.4527 15.4808 15.5587C15.7503 15.393 16.0043 15.1897 16.236 14.9487L19.5887 11.4593C21.07 9.91758 21.07 7.41797 19.5887 5.87625C18.1073 4.33454 15.7056 4.33455 14.2242 5.87625L13.4858 6.64484" stroke="currentColor" stroke-width="1.5525" stroke-linecap="round"/>
<path d="M11.3536 19.3549L10.6148 20.1237C9.13351 21.6654 6.73174 21.6654 5.25038 20.1237C3.76902 18.5819 3.76902 16.0824 5.25038 14.5407L8.60318 11.0513C10.0845 9.50953 12.4863 9.50952 13.9676 11.0513C14.1689 11.2606 14.3428 11.4878 14.4894 11.7277" stroke="currentColor" stroke-width="1.5525" stroke-linecap="round"/>
</svg>
