<svg width="142" height="26" viewBox="0 0 142 26" fill="none" xmlns="http://www.w3.org/2000/svg">
<g clip-path="url(#clip0_50_221)">
<path d="M98.737 16.8554C98.7584 17.5183 99.0578 18.1423 99.6585 18.6769C100.257 19.2135 101.01 19.4701 101.91 19.4701C103.69 19.4701 104.699 18.5273 104.89 17.3045C104.997 15.8465 103.924 15.0106 102.382 14.6665L100.473 14.1941C98.0721 13.572 96.8727 12.2851 96.8727 10.3352C96.8727 9.11246 97.3451 8.12491 98.2879 7.35509C99.2308 6.56194 100.347 6.17702 101.655 6.17702C103.027 6.17702 104.163 6.58332 105.063 7.37647C105.965 8.16962 106.414 9.19994 106.414 10.5063H104.419C104.419 9.04831 103.263 8.08409 101.632 8.08409C100.881 8.08409 100.238 8.29987 99.6818 8.70616C99.1452 9.11246 98.8672 9.64901 98.8672 10.3119C98.8672 11.3403 99.5749 12.0285 100.969 12.3706L102.897 12.843C105.704 13.5506 107.121 15.1583 106.843 17.4736C106.713 18.5875 106.198 19.5109 105.321 20.238C104.441 20.967 103.305 21.3324 101.912 21.3324C100.432 21.3324 99.2094 20.8814 98.2238 20.0028C97.2382 19.1027 96.7444 18.0529 96.7444 16.8515L98.737 16.8554ZM110.553 21.1186H108.603V5.66187H110.555V12.6097C110.833 12.0518 111.284 11.6241 111.927 11.3461C112.592 11.0448 113.235 10.8951 113.857 10.8951C116.365 10.8951 117.93 12.5242 117.909 15.3333V21.1225H115.957V15.4616C115.957 13.8325 114.993 12.8041 113.599 12.8041C112.806 12.8041 112.098 13.0393 111.476 13.5331C110.854 14.0055 110.555 14.7345 110.555 15.7201V21.1206L110.553 21.1186ZM120.85 12.3298C121.857 11.3636 123.101 10.8932 124.581 10.8932C126.06 10.8932 127.304 11.3656 128.311 12.3298C129.318 13.294 129.833 14.5382 129.833 16.0817C129.833 17.6272 129.318 18.8908 128.288 19.8764C127.281 20.8426 126.037 21.3344 124.579 21.3344C123.121 21.3344 121.876 20.8406 120.869 19.8764C119.862 18.9122 119.347 17.6466 119.347 16.0817C119.349 14.5382 119.843 13.294 120.85 12.3298ZM126.919 13.7022C126.295 13.1016 125.504 12.8002 124.582 12.8002C123.661 12.8002 122.868 13.1016 122.224 13.7022C121.604 14.301 121.282 15.0961 121.282 16.0817C121.282 17.0887 121.604 17.9052 122.224 18.5253C122.868 19.1474 123.661 19.4468 124.582 19.4468C125.504 19.4468 126.297 19.1454 126.919 18.5253C127.563 17.9032 127.883 17.0887 127.883 16.0817C127.883 15.0961 127.563 14.3029 126.919 13.7022ZM133.4 11.107V12.6719C134.065 11.5561 135.459 10.8932 136.896 10.8932C138.29 10.8932 139.489 11.3869 140.455 12.3512C141.419 13.3154 141.913 14.5809 141.913 16.1459C141.913 17.6913 141.419 18.9336 140.455 19.8978C139.489 20.8639 138.311 21.3344 136.896 21.3344C135.438 21.3344 134.023 20.7356 133.4 19.6198V25.9864H131.451V11.109L133.4 11.107ZM134.407 18.5681C135.037 19.1338 135.856 19.439 136.701 19.4273C138.566 19.4273 139.938 18.119 139.938 16.1672C139.938 15.1816 139.615 14.3652 138.995 13.745C138.375 13.1229 137.623 12.8022 136.701 12.8022C135.78 12.8022 135.008 13.1035 134.365 13.7236C133.745 14.3224 133.422 15.1389 133.422 16.1672C133.422 17.1762 133.743 17.9907 134.407 18.5681Z" fill="#8A8A8A"/>
<path d="M8.42075 9.5266V8.60515C8.1136 8.56238 7.8045 8.53905 7.49541 8.53711C3.71044 8.541 0.642804 11.6106 0.638916 15.3955C0.638916 17.6331 1.73145 19.7287 3.56658 21.0098C3.53548 20.9748 3.50243 20.9398 3.47132 20.9048C2.38852 19.6918 1.76644 18.0919 1.76644 16.3403C1.75477 12.637 4.71548 9.60436 8.42075 9.5266Z" fill="#8A8A8A"/>
<path d="M8.58256 19.4993C10.2758 19.4877 11.6619 18.1502 11.7357 16.4589L11.7435 1.55622L14.4496 1.56011L14.4437 1.52706C14.3854 1.21602 14.3562 0.899147 14.3562 0.582275H10.6296L10.6238 15.5141C10.5616 17.1957 9.18132 18.5273 7.49781 18.5293C6.97488 18.5293 6.47916 18.399 6.0437 18.1696C6.61329 18.9589 7.53669 19.4993 8.58256 19.4993ZM19.5389 6.65533V5.76692C18.4989 5.76692 17.5289 5.45783 16.7163 4.92711C17.4394 5.7572 18.4231 6.41622 19.5389 6.65533Z" fill="#8A8A8A"/>
<path d="M16.7141 4.92497C15.8918 3.98407 15.4389 2.77685 15.4389 1.52686H14.4144C14.6787 2.94598 15.5477 4.16487 16.7141 4.92497ZM7.49567 12.2363C5.75579 12.25 4.35028 13.6574 4.33667 15.3953C4.33667 16.5987 5.04817 17.6426 6.0435 18.1675C5.65859 17.6368 5.45058 16.9972 5.45058 16.3421C5.45253 14.6119 6.85415 13.2122 8.58237 13.2103C8.90313 13.2103 9.21417 13.2647 9.50577 13.3561V9.55363C9.20056 9.51086 8.89146 9.48754 8.58237 9.48559C8.52793 9.48559 8.47544 9.48948 8.42101 9.48948L8.39574 9.49337L8.3938 12.3666C8.1022 12.2752 7.79893 12.2325 7.49567 12.2363Z" fill="#545454"/>
<path d="M19.5386 6.59691L19.5191 6.59302L19.5113 9.46236C17.6529 9.46042 15.8411 8.87333 14.3345 7.78469L14.3306 15.3993C14.3364 19.1668 11.2863 22.2247 7.52076 22.2306C7.51298 22.2306 7.50715 22.2306 7.49937 22.2306C6.0958 22.2422 4.7214 21.8165 3.5686 21.0156C4.86331 22.4113 6.68095 23.2045 8.58607 23.2045C12.371 23.2006 15.4406 20.133 15.4445 16.3461V8.77419C16.955 9.86088 18.7687 10.4441 20.6291 10.4402V6.7116C20.252 6.7116 19.8885 6.67078 19.5386 6.59691Z" fill="#545454"/>
<path d="M14.3538 15.3973V7.82347C15.8643 8.91017 17.6781 9.49337 19.5385 9.48948V6.59486C18.442 6.3577 17.4506 5.77255 16.7158 4.92497C15.526 4.15126 14.7037 2.92265 14.4432 1.52686H11.7139L11.708 16.4587C11.6458 18.1403 10.2656 19.4719 8.58207 19.4739C7.57508 19.4719 6.6303 18.9859 6.04321 18.1675C4.51328 17.3607 3.92425 15.4673 4.73101 13.9354C5.27144 12.909 6.33675 12.2655 7.49732 12.2616C7.82003 12.2616 8.13107 12.3141 8.42267 12.4055V9.48559C4.70185 9.57696 1.73142 12.6174 1.72559 16.3382C1.72559 18.1403 2.42737 19.783 3.56655 21.0096C4.7174 21.8183 6.08987 22.2518 7.49732 22.2518C11.2842 22.248 14.3519 19.1803 14.3558 15.3934V15.3973H14.3538ZM24.1185 6.29355H35.1527L34.1398 9.4506L31.2783 9.44866V21.1185H27.711V9.44866L24.1224 9.45449L24.1185 6.29355ZM53.228 6.29355H64.5187L63.504 9.4506L60.3936 9.44866V21.1185H56.8205V9.44866L53.2319 9.45449L53.228 6.29355ZM35.8253 11.0097H39.3634L39.3595 21.1224H35.8467L35.8253 11.0097ZM40.765 6.25078H44.2992V13.1578L47.8003 9.72081H52.0188L47.5884 14.0209L52.5515 21.1224H48.6576L45.347 16.1982L44.2992 17.2169V21.1243H40.7669L40.765 6.25078ZM78.2103 6.25078H81.7426V13.1578L85.2457 9.72081H89.4641L85.0338 14.0209L89.9948 21.1224H86.101L82.7904 16.1982L81.7426 17.2169V21.1243H78.2103V6.25078ZM37.5924 9.85495C38.576 9.85495 39.3731 9.05791 39.3731 8.07619C39.3731 7.09253 38.5761 6.29549 37.5943 6.29549H37.5924C36.6087 6.29549 35.8136 7.09253 35.8136 8.07619C35.8136 9.05791 36.6107 9.85301 37.5924 9.85495Z" fill="#8A8A8A"/>
<path d="M64.0656 15.0687C64.0656 11.9097 66.4956 9.28146 69.6449 9.03457C69.468 9.02096 69.2911 9.01514 69.1142 9.01514C65.7705 9.01514 63.0625 11.7251 63.0625 15.0668C63.0625 18.4105 65.7724 21.1185 69.1142 21.1185C69.2755 21.1185 69.4874 21.1107 69.6449 21.099C66.4956 20.8541 64.0656 18.2258 64.0656 15.0687Z" fill="#8A8A8A"/>
<path d="M71.0197 9.01514C70.8584 9.01514 70.6445 9.02485 70.4851 9.03457C73.8171 9.3009 76.3016 12.2169 76.0352 15.5489C75.7981 18.5116 73.4458 20.8619 70.4851 21.099C70.6426 21.1126 70.8584 21.1185 71.0197 21.1185C74.3634 21.1185 77.0714 18.4085 77.0714 15.0668C77.0714 11.7251 74.3614 9.01514 71.0197 9.01514Z" fill="#545454"/>
<path d="M70.0634 9.01514C66.7197 9.01319 64.0098 11.7231 64.0078 15.0649C64.0059 18.4085 66.7158 21.1185 70.0575 21.1204C70.0595 21.1204 70.0614 21.1204 70.0614 21.1204C73.4051 21.1204 76.1131 18.4105 76.1131 15.0688C76.117 11.7251 73.4071 9.01514 70.0634 9.01514ZM70.0634 18.01C68.4382 18.01 67.1202 16.692 67.1202 15.0668C67.1202 13.4416 68.4382 12.1236 70.0634 12.1236C71.6886 12.1236 73.0066 13.4416 73.0066 15.0668C73.0066 16.692 71.6886 18.01 70.0634 18.01Z" fill="#8A8A8A"/>
</g>
<defs>
<clipPath id="clip0_50_221">
<rect width="141.274" height="25.4042" fill="white" transform="translate(0.63916 0.582275)"/>
</clipPath>
</defs>
</svg>
